<svg width="512" height="512" viewBox="0 0 512 512" fill="none" xmlns="http://www.w3.org/2000/svg" role="img" aria-labelledby="title desc">
  <title id="title">ComandaHub</title>
  <desc id="desc">Símbolo ComandaHub com pedido conectado.</desc>
  <defs>
    <linearGradient id="g" x1="96" y1="72" x2="416" y2="448" gradientUnits="userSpaceOnUse">
      <stop offset="0" stop-color="#38BDF8"/>
      <stop offset="0.52" stop-color="#2563EB"/>
      <stop offset="1" stop-color="#1D4ED8"/>
    </linearGradient>
  </defs>
  <rect x="48" y="48" width="416" height="416" rx="112" fill="url(#g)"/>
  <path d="M156 202C178 167 213 148 256 148H328C354 148 375 169 375 195C375 221 354 242 328 242H253C237 242 224 248 214 260L156 337C140 358 110 347 110 322V273C110 245 132 223 156 202Z" fill="white" fill-opacity="0.98"/>
  <path d="M158 344H324C354 344 379 319 379 289C379 278 388 269 399 269C410 269 420 278 420 289C420 343 377 386 323 386H158C147 386 138 377 138 366C138 354 147 344 158 344Z" fill="white" fill-opacity="0.98"/>
  <circle cx="334" cy="195" r="25" fill="#0F172A" fill-opacity="0.15"/>
  <circle cx="334" cy="195" r="13" fill="white"/>
  <circle cx="158" cy="366" r="13" fill="#0F172A" fill-opacity="0.14"/>
  <circle cx="400" cy="289" r="13" fill="white"/>
</svg>